<svg width="46" height="40" viewBox="0 0 46 40" fill="none" xmlns="http://www.w3.org/2000/svg">
<g clip-path="url(#clip0_2346_29523)">
<path d="M26.1332 29.4922H19.875V39.0708H26.1332V29.4922Z" fill="#0088B8"/>
<path d="M12.7205 10.6602H9.98047V39.0699H12.7205V10.6602Z" fill="#0088B8" fill-opacity="0.1"/>
<path d="M12.722 39.0653H0.941406V10.6602H12.722" stroke="#0088B8" stroke-width="2" stroke-linecap="round" stroke-linejoin="round"/>
<path d="M36.0134 10.6602H33.2734V39.0699H36.0134V10.6602Z" fill="#0088B8" fill-opacity="0.1"/>
<path d="M33.2734 10.6602H45.054V39.0653H33.2734" stroke="#0088B8" stroke-width="2" stroke-linecap="round" stroke-linejoin="round"/>
<path d="M6.28516 15.8047H12.7225" stroke="#0088B8" stroke-width="2" stroke-linecap="round" stroke-linejoin="round"/>
<path d="M6.28516 20.6719H12.7225" stroke="#0088B8" stroke-width="2" stroke-linecap="round" stroke-linejoin="round"/>
<path d="M6.28516 25.543H12.7225" stroke="#0088B8" stroke-width="2" stroke-linecap="round" stroke-linejoin="round"/>
<path d="M6.28516 30.4141H12.7225" stroke="#0088B8" stroke-width="2" stroke-linecap="round" stroke-linejoin="round"/>
<path d="M33.2734 15.8047H39.7108" stroke="#0088B8" stroke-width="2" stroke-linecap="round" stroke-linejoin="round"/>
<path d="M33.2734 20.6719H39.7108" stroke="#0088B8" stroke-width="2" stroke-linecap="round" stroke-linejoin="round"/>
<path d="M33.2734 25.543H39.7108" stroke="#0088B8" stroke-width="2" stroke-linecap="round" stroke-linejoin="round"/>
<path d="M33.2734 30.4141H39.7108" stroke="#0088B8" stroke-width="2" stroke-linecap="round" stroke-linejoin="round"/>
<path d="M32.8528 0.929688H13.1445V39.0671H32.8528V0.929688Z" stroke="#222222" stroke-width="2" stroke-linecap="round" stroke-linejoin="round"/>
<path d="M18.293 7.32422H27.7108" stroke="#0088B8" stroke-width="2" stroke-linecap="round" stroke-linejoin="round"/>
<path d="M18.293 12.2695H27.7108" stroke="#0088B8" stroke-width="2" stroke-linecap="round" stroke-linejoin="round"/>
<path d="M18.293 17.2148H27.7108" stroke="#0088B8" stroke-width="2" stroke-linecap="round" stroke-linejoin="round"/>
<path d="M18.293 22.1562H27.7108" stroke="#0088B8" stroke-width="2" stroke-linecap="round" stroke-linejoin="round"/>
</g>
<defs>
<clipPath id="clip0_2346_29523">
<rect width="46" height="40" fill="white"/>
</clipPath>
</defs>
</svg>
