<svg width="33" height="41" viewBox="0 0 33 41" fill="none" xmlns="http://www.w3.org/2000/svg">
<path d="M16.2485 36.2784C16.178 36.2784 16.1075 36.2644 16.0414 36.2352C10.4135 33.7964 3.8418 29.3795 3.8418 24.9604V10.1282C3.8418 9.86925 4.02184 9.64677 4.2707 9.59734C8.44681 8.77317 12.3807 7.16249 15.9616 4.8091C16.1367 4.69449 16.3602 4.69449 16.5353 4.8091C20.1157 7.16249 24.049 8.77317 28.2262 9.59734C28.4751 9.64677 28.6551 9.86925 28.6551 10.1282V24.9609C28.6551 29.3801 22.0829 33.7969 16.4555 36.2357C16.3894 36.2644 16.3184 36.279 16.2485 36.279V36.2784ZM4.9011 10.5715V24.9609C4.9011 28.5593 10.566 32.6486 16.2485 35.1503C21.931 32.6486 27.5958 28.5593 27.5958 24.9609V10.5715C23.5563 9.72037 19.7419 8.15182 16.2485 5.90461C12.754 8.15182 8.94013 9.72037 4.9011 10.5715Z" fill="#222222" stroke="#222222" stroke-width="0.5"/>
<path d="M16.2497 40.25C16.2117 40.25 16.1737 40.2455 16.1369 40.2376C16.1369 40.2376 16.1347 40.2376 16.1336 40.2371C16.1336 40.2371 16.1314 40.2371 16.1302 40.2365C16.1302 40.2365 16.1291 40.2365 16.1286 40.2365C16.1286 40.2365 16.1275 40.2365 16.1269 40.2365H16.1253C16.1247 40.2365 16.1236 40.236 16.1236 40.2365C16.1236 40.2365 16.1225 40.2365 16.122 40.2365C16.122 40.2365 16.122 40.2365 16.1203 40.2365C16.1203 40.2365 16.1192 40.2365 16.1187 40.2365C16.1187 40.2365 16.1181 40.2365 16.1176 40.2365C16.1176 40.2365 16.1165 40.2365 16.1159 40.2365C16.1159 40.2365 16.1154 40.2365 16.1148 40.2365C16.1148 40.2365 16.1143 40.2365 16.1132 40.2365C16.1126 40.236 16.1121 40.2365 16.1115 40.2365C16.1115 40.2365 16.1104 40.2365 16.1099 40.2365C16.1099 40.2365 16.1088 40.2365 16.1082 40.2365C16.1071 40.236 16.1071 40.2365 16.1066 40.2365C16.1066 40.2365 16.1055 40.2365 16.1049 40.2365C16.1044 40.2365 16.1044 40.2365 16.1033 40.2365C16.1033 40.2365 16.1022 40.2365 16.1016 40.2365C16.1016 40.2365 16.1011 40.2365 16.1005 40.2365C16.0812 40.2303 16.062 40.2236 16.0433 40.2152L15.4723 39.9697C11.9002 38.4977 0.25 33.0915 0.25 24.9611V6.95482C0.25 6.67561 0.458118 6.44302 0.730102 6.41662C6.25237 5.88628 11.5082 3.79188 15.9293 0.360394C16.1187 0.213202 16.3813 0.213202 16.5707 0.360394C20.9918 3.79244 26.2476 5.88684 31.7699 6.41718C32.0419 6.44358 32.25 6.67617 32.25 6.95538V24.9617C32.25 33.0921 20.5998 38.4989 17.0293 39.9618L16.4573 40.2073C16.4463 40.2118 16.4358 40.2163 16.4248 40.2202C16.4248 40.2202 16.4248 40.2202 16.4232 40.2202C16.4232 40.2202 16.4215 40.2208 16.4215 40.2202C16.421 40.2202 16.4199 40.2202 16.4199 40.2202H16.4182C16.4182 40.2202 16.4177 40.2202 16.4171 40.2202C16.3631 40.2382 16.307 40.2478 16.2508 40.2478L16.2497 40.25ZM16.2497 39.1124C16.2497 39.1124 16.7078 38.9275 16.7463 38.9118C20.286 37.4483 31.1901 32.3337 31.1901 24.9611V7.44303C25.7791 6.83572 20.6318 4.77728 16.2497 1.46602C11.8682 4.77728 6.72091 6.83628 1.30931 7.44303V24.9606C1.30931 32.3567 12.2817 37.4798 15.7861 38.9253C15.8131 38.9365 16.2497 39.1124 16.2497 39.1124Z" fill="#222222" stroke="#222222" stroke-width="0.5"/>
<path d="M18.25 13.75H14.25V18.25H9.25V22.25H14.25V27.25H18.25V22.25H23.25V18.25H18.25V13.75Z" fill="#0088B8"/>
<path d="M18.4013 27.7143H14.0969C13.8045 27.7143 13.5672 27.4722 13.5672 27.1739V22.9868H9.46325C9.17089 22.9868 8.93359 22.7446 8.93359 22.4463V18.0541C8.93359 17.7558 9.17089 17.5137 9.46325 17.5137H13.5672V13.3266C13.5672 13.0283 13.8045 12.7861 14.0969 12.7861H18.4013C18.6936 12.7861 18.9309 13.0283 18.9309 13.3266V17.5137H23.0344C23.3267 17.5137 23.564 17.7558 23.564 18.0541V22.4463C23.564 22.7446 23.3267 22.9868 23.0344 22.9868H18.9309V27.1739C18.9309 27.4722 18.6936 27.7143 18.4013 27.7143ZM14.6271 26.6334H17.8722V22.4463C17.8722 22.148 18.1095 21.9059 18.4018 21.9059H22.5053V18.5946H18.4018C18.1095 18.5946 17.8722 18.3525 17.8722 18.0541V13.867H14.6271V18.0541C14.6271 18.3525 14.3898 18.5946 14.0974 18.5946H9.99345V21.9059H14.0974C14.3898 21.9059 14.6271 22.148 14.6271 22.4463V26.6334Z" fill="#222222" stroke="#222222" stroke-width="0.5"/>
</svg>
