<svg width="46" height="48" viewBox="0 0 46 48" fill="none" xmlns="http://www.w3.org/2000/svg">
<g clip-path="url(#clip0_3641_16079)">
<path d="M38 24.48L36 22.48H33L30 20.48H28L26 19.48L24 21.48H21L18 23.48V25.48" stroke="#222222" stroke-width="2" stroke-miterlimit="10"/>
<path d="M16 39.4801C16.38 39.1001 16.78 38.4801 18 38.4801H32C33.11 38.4801 39.22 32.3501 40 31.4801C40.75 30.6401 44.08 25.6401 45 23.4801C44.42 22.7001 42.85 22.0501 41 22.4801C39.23 22.8901 38.19 24.1601 37 26.4801L32.42 28.8601" stroke="#222222" stroke-width="2" stroke-linejoin="round"/>
<path d="M22 32.48H30C34 32.48 34 27.48 30 27.48H24.72C23.89 27.48 22.32 25.48 21 25.48H16C14.65 25.48 12.97 26.58 12 27.48C10.5 28.98 8 31.48 8 31.48" stroke="#222222" stroke-width="2" stroke-linejoin="round"/>
<path d="M5.99339 29.4861L0.994141 34.4854L12.9937 46.485L17.993 41.4857L5.99339 29.4861Z" fill="#0088B8" stroke="#222222" stroke-width="2" stroke-linejoin="round"/>
<path d="M31.95 11.04C29.32 12.57 29 16.48 29 16.48C29 16.48 32.75 17.96 35.38 16.44C38.01 14.91 41 9.47998 41 9.47998C41 9.47998 34.58 9.50998 31.95 11.04Z" fill="white" stroke="#222222" stroke-width="2" stroke-miterlimit="10"/>
<path d="M24.4193 16.1C26.8593 13.59 26.4393 9.27998 25.1393 7.43998C21.9593 2.92998 16.1893 4.12998 12.0793 1.47998C9.03934 8.59998 12.6293 17.57 21.9993 16.48" stroke="#222222" stroke-width="2" stroke-miterlimit="10"/>
<path d="M26.0002 20.4801C25.1702 12.9801 19.3602 10.1601 15.4902 6.84009" stroke="#222222" stroke-width="2" stroke-miterlimit="10"/>
</g>
<defs>
<clipPath id="clip0_3641_16079">
<rect width="46" height="47.48" fill="white"/>
</clipPath>
</defs>
</svg>
