<svg width="62" height="80" viewBox="0 0 62 80" fill="none" xmlns="http://www.w3.org/2000/svg">
<g clip-path="url(#clip0_2382_11712)">
<path d="M18.0003 32.1993C19.4736 34.1976 16.667 38.1744 16.1336 40.591C15.767 42.2508 15.0803 45.3711 15.3536 45.9089C16.387 47.9669 19.1203 46.0284 20.9136 47.2367C22.707 48.445 22.107 50.8615 23.9003 50.8615C25.6936 50.8615 26.727 52.0898 27.7603 54.1545C28.7336 56.0931 28.6803 58.7155 25.0936 59.3196C21.507 59.9238 21.1136 63.2433 20.5203 64.4516C19.927 65.6599 19.647 71.8408 18.4536 70.6325C17.2603 69.4242 16.2203 67.6516 17.4203 63.4225C18.6136 59.1935 14.507 56.7835 14.3136 56.2126C13.2803 53.1188 15.527 48.445 11.9403 48.445C8.35365 48.445 6.03365 47.9736 3.96698 46.9445C2.88031 46.4068 1.32031 43.4856 1.32031 43.4856C1.32031 43.4856 4.79365 33.1089 7.06698 30.4599C9.46698 27.6649 11.5603 25.7993 13.227 24.5645L17.987 32.1993H18.0003Z" fill="#999999"/>
<path d="M58.6647 37.5098C58.6647 37.5098 53.1114 35.8169 50.1247 35.8302C48.458 35.8368 44.0114 36.8127 42.1714 39.0235C41.6314 39.6741 42.4581 40.6235 42.2647 41.8916C41.9314 44.0028 41.4514 44.4741 40.0047 45.9148C39.1647 46.7513 36.8981 47.6077 36.8447 49.6592C36.8114 50.7746 39.8381 52.7663 39.6447 53.3704C39.1047 55.0899 37.3847 57.3936 36.5714 59.9762C35.7581 62.5588 32.5981 66.3032 34.4047 66.8675C36.2114 67.4318 39.7381 65.6924 42.3581 63.6741C44.9781 61.6559 49.2247 63.9264 51.4847 59.9032C53.7447 55.8799 59.998 56.7696 59.998 56.7696C61.998 51.4584 61.7847 44.275 58.6647 37.5165V37.5098Z" fill="#999999"/>
<path d="M31 79.9996C22.72 79.9996 14.9333 76.7863 9.08 70.9572C3.22667 65.1282 0 57.3738 0 49.1282C0 40.8826 3.22667 33.1282 9.08 27.2991C10.2067 26.1772 11.42 25.1348 12.7 24.2054C13.1467 23.8801 13.7733 23.973 14.1 24.4178C14.4267 24.8626 14.3267 25.4867 13.8867 25.812C12.6933 26.6817 11.5533 27.6577 10.5 28.7066C5.02 34.1639 2.00667 41.4137 2.00667 49.1282C2.00667 56.8427 5.02667 64.0925 10.5 69.5498C15.98 75.007 23.26 78.0079 31.0067 78.0079C38.7533 78.0079 46.0333 75.0004 51.5133 69.5498C56.9933 64.0925 60.0067 56.8427 60.0067 49.1282C60.0067 41.4137 56.9867 34.1639 51.5133 28.7066C50.12 27.3191 48.5933 26.0776 46.9667 25.0021C46.5067 24.6967 46.38 24.0792 46.68 23.6211C46.9867 23.1631 47.6067 23.0369 48.0667 23.3357C49.8067 24.4776 51.44 25.812 52.9267 27.2925C58.78 33.1216 62.0067 40.8759 62.0067 49.1216C62.0067 57.3672 58.78 65.1216 52.9267 70.9506C47.0733 76.7797 39.2867 79.9929 31.0067 79.9929L31 79.9996Z" fill="#222222"/>
<path d="M30.3857 0.996094C22.2457 0.996094 15.6523 7.56871 15.6523 15.6683C15.6523 25.3081 30.3857 42.9679 30.3857 42.9679C30.3857 42.9679 45.119 25.3081 45.119 15.6683C45.119 7.56207 38.519 0.996094 30.3857 0.996094ZM30.3857 20.6608C27.3323 20.6608 25.1857 18.5363 25.1857 15.4957C25.1857 12.455 27.3323 10.3173 30.3857 10.3173C33.439 10.3173 35.5857 12.455 35.5857 15.4957C35.5857 18.5363 33.439 20.6608 30.3857 20.6608Z" fill="#E60012"/>
<path d="M30.3857 43.9635C30.0857 43.9635 29.8057 43.8307 29.619 43.605C29.0057 42.8747 14.6523 25.5602 14.6523 15.6681C14.6523 7.03071 21.7123 0 30.3857 0C39.059 0 46.119 7.03071 46.119 15.6681C46.119 25.5602 31.7657 42.8747 31.1523 43.605C30.9657 43.8307 30.679 43.9635 30.3857 43.9635ZM30.3857 1.9917C22.8123 1.9917 16.6523 8.12614 16.6523 15.6681C16.6523 23.6017 27.3857 37.6232 30.3857 41.3809C33.3857 37.6166 44.119 23.595 44.119 15.6681C44.119 7.74108 37.959 1.9917 30.3857 1.9917Z" fill="#222222"/>
<path d="M30.3878 21.2374C27.2078 21.2374 24.6211 18.6615 24.6211 15.4947C24.6211 12.3279 27.2078 9.75195 30.3878 9.75195C33.5678 9.75195 36.1544 12.3279 36.1544 15.4947C36.1544 18.6615 33.5678 21.2374 30.3878 21.2374ZM30.3878 11.7437C28.3078 11.7437 26.6211 13.43 26.6211 15.4947C26.6211 17.5594 28.3144 19.2457 30.3878 19.2457C32.4611 19.2457 34.1544 17.5594 34.1544 15.4947C34.1544 13.43 32.4611 11.7437 30.3878 11.7437Z" fill="#222222"/>
</g>
<defs>
<clipPath id="clip0_2382_11712">
<rect width="62" height="80" fill="white"/>
</clipPath>
</defs>
</svg>
